{
	"asset":{
		"generator":"Khronos glTF Blender I/O v5.0.21",
		"version":"2.0"
	},
	"extensionsUsed":[
		"KHR_materials_unlit"
	],
	"scene":0,
	"scenes":[
		{
			"name":"Scene",
			"nodes":[
				1
			]
		}
	],
	"nodes":[
		{
			"mesh":0,
			"name":"Cube.001",
			"scale":[
				1.0044406652450562,
				1.0044406652450562,
				1.0044406652450562
			],
			"translation":[
				-0.00047041475772857666,
				0.20106951892375946,
				0
			]
		},
		{
			"children":[
				0
			],
			"mesh":1,
			"name":"Cube",
			"scale":[
				1.0777143239974976,
				1,
				1
			],
			"translation":[
				0.0010449881665408611,
				0,
				0
			]
		}
	],
	"animations":[
		{
			"channels":[
				{
					"sampler":0,
					"target":{
						"node":1,
						"path":"translation"
					}
				}
			],
			"name":"CubeAction",
			"samplers":[
				{
					"input":260,
					"interpolation":"LINEAR",
					"output":261
				}
			]
		},
		{
			"channels":[
				{
					"sampler":0,
					"target":{
						"node":0,
						"path":"translation"
					}
				},
				{
					"sampler":1,
					"target":{
						"node":0,
						"path":"rotation"
					}
				},
				{
					"sampler":2,
					"target":{
						"node":0,
						"path":"weights"
					}
				}
			],
			"name":"Cube.001Action",
			"samplers":[
				{
					"input":262,
					"interpolation":"LINEAR",
					"output":263
				},
				{
					"input":262,
					"interpolation":"LINEAR",
					"output":264
				},
				{
					"input":262,
					"interpolation":"LINEAR",
					"output":265
				}
			]
		}
	],
	"materials":[
		{
			"doubleSided":true,
			"extensions":{
				"KHR_materials_unlit":{}
			},
			"name":"test",
			"pbrMetallicRoughness":{
				"metallicFactor":0,
				"roughnessFactor":0.9
			}
		}
	],
	"meshes":[
		{
			"extras":{
				"targetNames":[
					"frame_0",
					"frame_1",
					"frame_2",
					"frame_3",
					"frame_4",
					"frame_5",
					"frame_6",
					"frame_7",
					"frame_8",
					"frame_9",
					"frame_10",
					"frame_11",
					"frame_12",
					"frame_13",
					"frame_14",
					"frame_15",
					"frame_16",
					"frame_17",
					"frame_18",
					"frame_19",
					"frame_20",
					"frame_21",
					"frame_22",
					"frame_23",
					"frame_24",
					"frame_25",
					"frame_26",
					"frame_27",
					"frame_28",
					"frame_29",
					"frame_30",
					"frame_31",
					"frame_32",
					"frame_33",
					"frame_34",
					"frame_35",
					"frame_36",
					"frame_37",
					"frame_38",
					"frame_39",
					"frame_40",
					"frame_41",
					"frame_42",
					"frame_43",
					"frame_44",
					"frame_45",
					"frame_46",
					"frame_47",
					"frame_48",
					"frame_49",
					"frame_50",
					"frame_51",
					"frame_52",
					"frame_53",
					"frame_54",
					"frame_55",
					"frame_56",
					"frame_57",
					"frame_58",
					"frame_59",
					"frame_60",
					"frame_61",
					"frame_62",
					"frame_63",
					"frame_64",
					"frame_65",
					"frame_66",
					"frame_67",
					"frame_68",
					"frame_69",
					"frame_70",
					"frame_71",
					"frame_72",
					"frame_73",
					"frame_74",
					"frame_75",
					"frame_76",
					"frame_77",
					"frame_78",
					"frame_79",
					"frame_80",
					"frame_81",
					"frame_82",
					"frame_83",
					"frame_84",
					"frame_85",
					"frame_86",
					"frame_87",
					"frame_88",
					"frame_89",
					"frame_90",
					"frame_91",
					"frame_92",
					"frame_93",
					"frame_94",
					"frame_95",
					"frame_96",
					"frame_97",
					"frame_98",
					"frame_99",
					"frame_100",
					"frame_101",
					"frame_102",
					"frame_103",
					"frame_104",
					"frame_105",
					"frame_106",
					"frame_107",
					"frame_108",
					"frame_109",
					"frame_110",
					"frame_111",
					"frame_112",
					"frame_113",
					"frame_114",
					"frame_115",
					"frame_116",
					"frame_117",
					"frame_118",
					"frame_119",
					"frame_120",
					"frame_121",
					"frame_122",
					"frame_123",
					"frame_124",
					"frame_125"
				]
			},
			"name":"Cube.002",
			"primitives":[
				{
					"attributes":{
						"POSITION":0,
						"NORMAL":1,
						"TEXCOORD_0":2
					},
					"indices":3,
					"material":0,
					"targets":[
						{
							"POSITION":4,
							"NORMAL":5
						},
						{
							"POSITION":6,
							"NORMAL":7
						},
						{
							"POSITION":8,
							"NORMAL":9
						},
						{
							"POSITION":10,
							"NORMAL":11
						},
						{
							"POSITION":12,
							"NORMAL":13
						},
						{
							"POSITION":14,
							"NORMAL":15
						},
						{
							"POSITION":16,
							"NORMAL":17
						},
						{
							"POSITION":18,
							"NORMAL":19
						},
						{
							"POSITION":20,
							"NORMAL":21
						},
						{
							"POSITION":22,
							"NORMAL":23
						},
						{
							"POSITION":24,
							"NORMAL":25
						},
						{
							"POSITION":26,
							"NORMAL":27
						},
						{
							"POSITION":28,
							"NORMAL":29
						},
						{
							"POSITION":30,
							"NORMAL":31
						},
						{
							"POSITION":32,
							"NORMAL":33
						},
						{
							"POSITION":34,
							"NORMAL":35
						},
						{
							"POSITION":36,
							"NORMAL":37
						},
						{
							"POSITION":38,
							"NORMAL":39
						},
						{
							"POSITION":40,
							"NORMAL":41
						},
						{
							"POSITION":42,
							"NORMAL":43
						},
						{
							"POSITION":44,
							"NORMAL":45
						},
						{
							"POSITION":46,
							"NORMAL":47
						},
						{
							"POSITION":48,
							"NORMAL":49
						},
						{
							"POSITION":50,
							"NORMAL":51
						},
						{
							"POSITION":52,
							"NORMAL":53
						},
						{
							"POSITION":54,
							"NORMAL":55
						},
						{
							"POSITION":56,
							"NORMAL":57
						},
						{
							"POSITION":58,
							"NORMAL":59
						},
						{
							"POSITION":60,
							"NORMAL":61
						},
						{
							"POSITION":62,
							"NORMAL":63
						},
						{
							"POSITION":64,
							"NORMAL":65
						},
						{
							"POSITION":66,
							"NORMAL":67
						},
						{
							"POSITION":68,
							"NORMAL":69
						},
						{
							"POSITION":70,
							"NORMAL":71
						},
						{
							"POSITION":72,
							"NORMAL":73
						},
						{
							"POSITION":74,
							"NORMAL":75
						},
						{
							"POSITION":76,
							"NORMAL":77
						},
						{
							"POSITION":78,
							"NORMAL":79
						},
						{
							"POSITION":80,
							"NORMAL":81
						},
						{
							"POSITION":82,
							"NORMAL":83
						},
						{
							"POSITION":84,
							"NORMAL":85
						},
						{
							"POSITION":86,
							"NORMAL":87
						},
						{
							"POSITION":88,
							"NORMAL":89
						},
						{
							"POSITION":90,
							"NORMAL":91
						},
						{
							"POSITION":92,
							"NORMAL":93
						},
						{
							"POSITION":94,
							"NORMAL":95
						},
						{
							"POSITION":96,
							"NORMAL":97
						},
						{
							"POSITION":98,
							"NORMAL":99
						},
						{
							"POSITION":100,
							"NORMAL":101
						},
						{
							"POSITION":102,
							"NORMAL":103
						},
						{
							"POSITION":104,
							"NORMAL":105
						},
						{
							"POSITION":106,
							"NORMAL":107
						},
						{
							"POSITION":108,
							"NORMAL":109
						},
						{
							"POSITION":110,
							"NORMAL":111
						},
						{
							"POSITION":112,
							"NORMAL":113
						},
						{
							"POSITION":114,
							"NORMAL":115
						},
						{
							"POSITION":116,
							"NORMAL":117
						},
						{
							"POSITION":118,
							"NORMAL":119
						},
						{
							"POSITION":120,
							"NORMAL":121
						},
						{
							"POSITION":122,
							"NORMAL":123
						},
						{
							"POSITION":124,
							"NORMAL":125
						},
						{
							"POSITION":126,
							"NORMAL":127
						},
						{
							"POSITION":128,
							"NORMAL":129
						},
						{
							"POSITION":130,
							"NORMAL":131
						},
						{
							"POSITION":132,
							"NORMAL":133
						},
						{
							"POSITION":134,
							"NORMAL":135
						},
						{
							"POSITION":136,
							"NORMAL":137
						},
						{
							"POSITION":138,
							"NORMAL":139
						},
						{
							"POSITION":140,
							"NORMAL":141
						},
						{
							"POSITION":142,
							"NORMAL":143
						},
						{
							"POSITION":144,
							"NORMAL":145
						},
						{
							"POSITION":146,
							"NORMAL":147
						},
						{
							"POSITION":148,
							"NORMAL":149
						},
						{
							"POSITION":150,
							"NORMAL":151
						},
						{
							"POSITION":152,
							"NORMAL":153
						},
						{
							"POSITION":154,
							"NORMAL":155
						},
						{
							"POSITION":156,
							"NORMAL":157
						},
						{
							"POSITION":158,
							"NORMAL":159
						},
						{
							"POSITION":160,
							"NORMAL":161
						},
						{
							"POSITION":162,
							"NORMAL":163
						},
						{
							"POSITION":164,
							"NORMAL":165
						},
						{
							"POSITION":166,
							"NORMAL":167
						},
						{
							"POSITION":168,
							"NORMAL":169
						},
						{
							"POSITION":170,
							"NORMAL":171
						},
						{
							"POSITION":172,
							"NORMAL":173
						},
						{
							"POSITION":174,
							"NORMAL":175
						},
						{
							"POSITION":176,
							"NORMAL":177
						},
						{
							"POSITION":178,
							"NORMAL":179
						},
						{
							"POSITION":180,
							"NORMAL":181
						},
						{
							"POSITION":182,
							"NORMAL":183
						},
						{
							"POSITION":184,
							"NORMAL":185
						},
						{
							"POSITION":186,
							"NORMAL":187
						},
						{
							"POSITION":188,
							"NORMAL":189
						},
						{
							"POSITION":190,
							"NORMAL":191
						},
						{
							"POSITION":192,
							"NORMAL":193
						},
						{
							"POSITION":194,
							"NORMAL":195
						},
						{
							"POSITION":196,
							"NORMAL":197
						},
						{
							"POSITION":198,
							"NORMAL":199
						},
						{
							"POSITION":200,
							"NORMAL":201
						},
						{
							"POSITION":202,
							"NORMAL":203
						},
						{
							"POSITION":204,
							"NORMAL":205
						},
						{
							"POSITION":206,
							"NORMAL":207
						},
						{
							"POSITION":208,
							"NORMAL":209
						},
						{
							"POSITION":210,
							"NORMAL":211
						},
						{
							"POSITION":212,
							"NORMAL":213
						},
						{
							"POSITION":214,
							"NORMAL":215
						},
						{
							"POSITION":216,
							"NORMAL":217
						},
						{
							"POSITION":218,
							"NORMAL":219
						},
						{
							"POSITION":220,
							"NORMAL":221
						},
						{
							"POSITION":222,
							"NORMAL":223
						},
						{
							"POSITION":224,
							"NORMAL":225
						},
						{
							"POSITION":226,
							"NORMAL":227
						},
						{
							"POSITION":228,
							"NORMAL":229
						},
						{
							"POSITION":230,
							"NORMAL":231
						},
						{
							"POSITION":232,
							"NORMAL":233
						},
						{
							"POSITION":234,
							"NORMAL":235
						},
						{
							"POSITION":236,
							"NORMAL":237
						},
						{
							"POSITION":238,
							"NORMAL":239
						},
						{
							"POSITION":240,
							"NORMAL":241
						},
						{
							"POSITION":242,
							"NORMAL":243
						},
						{
							"POSITION":244,
							"NORMAL":245
						},
						{
							"POSITION":246,
							"NORMAL":247
						},
						{
							"POSITION":248,
							"NORMAL":249
						},
						{
							"POSITION":250,
							"NORMAL":251
						},
						{
							"POSITION":252,
							"NORMAL":253
						},
						{
							"POSITION":254,
							"NORMAL":255
						}
					]
				}
			],
			"weights":[
				0,
				0,
				0,
				0,
				1,
				0,
				0,
				0,
				0,
				0,
				0,
				0,
				0,
				0,
				0,
				0,
				0,
				0,
				0,
				0,
				0,
				0,
				0,
				0,
				0,
				0,
				0,
				0,
				0,
				0,
				0,
				0,
				0,
				0,
				0,
				0,
				0,
				0,
				0,
				0,
				0,
				0,
				0,
				0,
				0,
				0,
				0,
				0,
				0,
				0,
				0,
				0,
				0,
				0,
				0,
				0,
				0,
				0,
				0,
				0,
				0,
				0,
				0,
				0,
				0,
				0,
				0,
				0,
				0,
				0,
				0,
				0,
				0,
				0,
				0,
				0,
				0,
				0,
				0,
				0,
				0,
				0,
				0,
				0,
				0,
				0,
				0,
				0,
				0,
				0,
				0,
				0,
				0,
				0,
				0,
				0,
				0,
				0,
				0,
				0,
				0,
				0,
				0,
				0,
				0,
				0,
				0,
				0,
				0,
				0,
				0,
				0,
				0,
				0,
				0,
				0,
				0,
				0,
				0,
				0,
				0,
				0,
				0,
				0,
				0,
				0
			]
		},
		{
			"name":"Cube.001",
			"primitives":[
				{
					"attributes":{
						"POSITION":256,
						"NORMAL":257,
						"TEXCOORD_0":258
					},
					"indices":259,
					"material":0
				}
			]
		}
	],
	"accessors":[
		{
			"bufferView":0,
			"componentType":5126,
			"count":2196,
			"max":[
				0.1170540601015091,
				0.011442854069173336,
				0.003548387670889497
			],
			"min":[
				-0.11705504357814789,
				-0.023377837613224983,
				-0.003548387670889497
			],
			"type":"VEC3"
		},
		{
			"bufferView":1,
			"componentType":5126,
			"count":2196,
			"type":"VEC3"
		},
		{
			"bufferView":2,
			"componentType":5126,
			"count":2196,
			"type":"VEC2"
		},
		{
			"bufferView":3,
			"componentType":5123,
			"count":13152,
			"type":"SCALAR"
		},
		{
			"bufferView":4,
			"componentType":5126,
			"count":2196,
			"max":[
				1.1175870895385742e-08,
				0,
				1.862645149230957e-09
			],
			"min":[
				-1.862645149230957e-08,
				0,
				-1.862645149230957e-09
			],
			"type":"VEC3"
		},
		{
			"bufferView":5,
			"componentType":5126,
			"count":2196,
			"type":"VEC3"
		},
		{
			"bufferView":6,
			"componentType":5126,
			"count":2196,
			"max":[
				2.2351741790771484e-08,
				0,
				1.862645149230957e-09
			],
			"min":[
				-2.2351741790771484e-08,
				0,
				-1.862645149230957e-09
			],
			"type":"VEC3"
		},
		{
			"bufferView":7,
			"componentType":5126,
			"count":2196,
			"type":"VEC3"
		},
		{
			"bufferView":8,
			"componentType":5126,
			"count":2196,
			"max":[
				1.862645149230957e-08,
				0,
				1.862645149230957e-09
			],
			"min":[
				-1.862645149230957e-08,
				0,
				-1.862645149230957e-09
			],
			"type":"VEC3"
		},
		{
			"bufferView":9,
			"componentType":5126,
			"count":2196,
			"type":"VEC3"
		},
		{
			"bufferView":10,
			"componentType":5126,
			"count":2196,
			"max":[
				1.1175870895385742e-08,
				0,
				1.862645149230957e-09
			],
			"min":[
				-1.4901161193847656e-08,
				0,
				-1.862645149230957e-09
			],
			"type":"VEC3"
		},
		{
			"bufferView":11,
			"componentType":5126,
			"count":2196,
			"type":"VEC3"
		},
		{
			"bufferView":12,
			"componentType":5126,
			"count":2196,
			"max":[
				1.862645149230957e-08,
				0,
				1.862645149230957e-09
			],
			"min":[
				-1.862645149230957e-08,
				0,
				-1.862645149230957e-09
			],
			"type":"VEC3"
		},
		{
			"bufferView":13,
			"componentType":5126,
			"count":2196,
			"type":"VEC3"
		},
		{
			"bufferView":14,
			"componentType":5126,
			"count":2196,
			"max":[
				1.6763806343078613e-08,
				0,
				1.862645149230957e-09
			],
			"min":[
				-1.4901161193847656e-08,
				0,
				-1.862645149230957e-09
			],
			"type":"VEC3"
		},
		{
			"bufferView":15,
			"componentType":5126,
			"count":2196,
			"type":"VEC3"
		},
		{
			"bufferView":16,
			"componentType":5126,
			"count":2196,
			"max":[
				1.6763806343078613e-08,
				9.472481906414032e-06,
				0.0001635684457141906
			],
			"min":[
				-0.00030935555696487427,
				0,
				-1.862645149230957e-09
			],
			"type":"VEC3"
		},
		{
			"bufferView":17,
			"componentType":5126,
			"count":2196,
			"type":"VEC3"
		},
		{
			"bufferView":18,
			"componentType":5126,
			"count":2196,
			"max":[
				1.6763806343078613e-08,
				5.1606446504592896e-05,
				0.0004533885803539306
			],
			"min":[
				-0.000818200409412384,
				0,
				-1.862645149230957e-09
			],
			"type":"VEC3"
		},
		{
			"bufferView":19,
			"componentType":5126,
			"count":2196,
			"type":"VEC3"
		},
		{
			"bufferView":20,
			"componentType":5126,
			"count":2196,
			"max":[
				1.862645149230957e-08,
				0.0001293867826461792,
				0.0007741062436252832
			],
			"min":[
				-0.0013321414589881897,
				0,
				-1.862645149230957e-09
			],
			"type":"VEC3"
		},
		{
			"bufferView":21,
			"componentType":5126,
			"count":2196,
			"type":"VEC3"
		},
		{
			"bufferView":22,
			"componentType":5126,
			"count":2196,
			"max":[
				1.6763806343078613e-08,
				0.00025194138288497925,
				0.0011286830995231867
			],
			"min":[
				-0.0018507018685340881,
				0,
				-1.862645149230957e-09
			],
			"type":"VEC3"
		},
		{
			"bufferView":23,
			"componentType":5126,
			"count":2196,
			"type":"VEC3"
		},
		{
			"bufferView":24,
			"componentType":5126,
			"count":2196,
			"max":[
				2.2351741790771484e-08,
				0.0004186853766441345,
				0.0015203638467937708
			],
			"min":[
				-0.0023730769753456116,
				0,
				-1.862645149230957e-09
			],
			"type":"VEC3"
		},
		{
			"bufferView":25,
			"componentType":5126,
			"count":2196,
			"type":"VEC3"
		},
		{
			"bufferView":26,
			"componentType":5126,
			"count":2196,
			"max":[
				1.4901161193847656e-08,
				0.000631941482424736,
				0.0019527807598933578
			],
			"min":[
				-0.0028981491923332214,
				0,
				-1.862645149230957e-09
			],
			"type":"VEC3"
		},
		{
			"bufferView":27,
			"componentType":5126,
			"count":2196,
			"type":"VEC3"
		},
		{
			"bufferView":28,
			"componentType":5126,
			"count":2196,
			"max":[
				1.4901161193847656e-08,
				0.0008940920233726501,
				0.002429800573736429
			],
			"min":[
				-0.0034244731068611145,
				0,
				-1.862645149230957e-09
			],
			"type":"VEC3"
		},
		{
			"bufferView":29,
			"componentType":5126,
			"count":2196,
			"type":"VEC3"
		},
		{
			"bufferView":30,
			"componentType":5126,
			"count":2196,
			"max":[
				1.4901161193847656e-08,
				0.0012076161801815033,
				0.0029556998051702976
			],
			"min":[
				-0.003950126469135284,
				0,
				-1.862645149230957e-09
			],
			"type":"VEC3"
		},
		{
			"bufferView":31,
			"componentType":5126,
			"count":2196,
			"type":"VEC3"
		},
		{
			"bufferView":32,
			"componentType":5126,
			"count":2196,
			"max":[
				2.2351741790771484e-08,
				0.0015749670565128326,
				0.0035350120160728693
			],
			"min":[
				-0.004472874104976654,
				0,
				-1.862645149230957e-09
			],
			"type":"VEC3"
		},
		{
			"bufferView":33,
			"componentType":5126,
			"count":2196,
			"type":"VEC3"
		},
		{
			"bufferView":34,
			"componentType":5126,
			"count":2196,
			"max":[
				2.2351741790771484e-08,
				0.0019984617829322815,
				0.004172563552856445
			],
			"min":[
				-0.004993341863155365,
				0,
				-1.862645149230957e-09
			],
			"type":"VEC3"
		},
		{
			"bufferView":35,
			"componentType":5126,
			"count":2196,
			"type":"VEC3"
		},
		{
			"bufferView":36,
			"componentType":5126,
			"count":2196,
			"max":[
				2.2351741790771484e-08,
				0.0024804361164569855,
				0.0048735011368989944
			],
			"min":[
				-0.005506090819835663,
				0,
				-1.862645149230957e-09
			],
			"type":"VEC3"
		},
		{
			"bufferView":37,
			"componentType":5126,
			"count":2196,
			"type":"VEC3"
		},
		{
			"bufferView":38,
			"componentType":5126,
			"count":2196,
			"max":[
				2.2351741790771484e-08,
				0.003022916615009308,
				0.005643116310238838
			],
			"min":[
				-0.006008520722389221,
				0,
				-1.862645149230957e-09
			],
			"type":"VEC3"
		},
		{
			"bufferView":39,
			"componentType":5126,
			"count":2196,
			"type":"VEC3"
		},
		{
			"bufferView":40,
			"componentType":5126,
			"count":2196,
			"max":[
				1.1175870895385742e-08,
				0.003627600148320198,
				0.006486808881163597
			],
			"min":[
				-0.006497293710708618,
				0,
				-9.313225746154785e-10
			],
			"type":"VEC3"
		},
		{
			"bufferView":41,
			"componentType":5126,
			"count":2196,
			"type":"VEC3"
		},
		{
			"bufferView":42,
			"componentType":5126,
			"count":2196,
			"max":[
				1.4901161193847656e-08,
				0.004295824095606804,
				0.007410023361444473
			],
			"min":[
				-0.006964549422264099,
				0,
				-9.313225746154785e-10
			],
			"type":"VEC3"
		},
		{
			"bufferView":43,
			"componentType":5126,
			"count":2196,
			"type":"VEC3"
		},
		{
			"bufferView":44,
			"componentType":5126,
			"count":2196,
			"max":[
				1.1175870895385742e-08,
				0.005028219893574715,
				0.008417993783950806
			],
			"min":[
				-0.0074046701192855835,
				0,
				-9.313225746154785e-10
			],
			"type":"VEC3"
		},
		{
			"bufferView":45,
			"componentType":5126,
			"count":2196,
			"type":"VEC3"
		},
		{
			"bufferView":46,
			"componentType":5126,
			"count":2196,
			"max":[
				1.4901161193847656e-08,
				0.005824584513902664,
				0.009515566751360893
			],
			"min":[
				-0.007811605930328369,
				0,
				-9.313225746154785e-10
			],
			"type":"VEC3"
		},
		{
			"bufferView":47,
			"componentType":5126,
			"count":2196,
			"type":"VEC3"
		},
		{
			"bufferView":48,
			"componentType":5126,
			"count":2196,
			"max":[
				1.4901161193847656e-08,
				0.006683697924017906,
				0.010706979781389236
			],
			"min":[
				-0.008181072771549225,
				0,
				-9.313225746154785e-10
			],
			"type":"VEC3"
		},
		{
			"bufferView":49,
			"componentType":5126,
			"count":2196,
			"type":"VEC3"
		},
		{
			"bufferView":50,
			"componentType":5126,
			"count":2196,
			"max":[
				1.1175870895385742e-08,
				0.007603025995194912,
				0.012059430591762066
			],
			"min":[
				-0.008208587765693665,
				0,
				-9.313225746154785e-10
			],
			"type":"VEC3"
		},
		{
			"bufferView":51,
			"componentType":5126,
			"count":2196,
			"type":"VEC3"
		},
		{
			"bufferView":52,
			"componentType":5126,
			"count":2196,
			"max":[
				1.1175870895385742e-08,
				0.008578373119235039,
				0.013710449449717999
			],
			"min":[
				-0.008023463189601898,
				0,
				-9.313225746154785e-10
			],
			"type":"VEC3"
		},
		{
			"bufferView":53,
			"componentType":5126,
			"count":2196,
			"type":"VEC3"
		},
		{
			"bufferView":54,
			"componentType":5126,
			"count":2196,
			"max":[
				1.4901161193847656e-08,
				0.009603799320757389,
				0.015656638890504837
			],
			"min":[
				-0.00773002952337265,
				-9.313225746154785e-09,
				-9.313225746154785e-10
			],
			"type":"VEC3"
		},
		{
			"bufferView":55,
			"componentType":5126,
			"count":2196,
			"type":"VEC3"
		},
		{
			"bufferView":56,
			"componentType":5126,
			"count":2196,
			"max":[
				7.450580596923828e-09,
				0.010671454481780529,
				0.017877895385026932
			],
			"min":[
				-0.007351979613304138,
				0,
				-4.656612873077393e-10
			],
			"type":"VEC3"
		},
		{
			"bufferView":57,
			"componentType":5126,
			"count":2196,
			"type":"VEC3"
		},
		{
			"bufferView":58,
			"componentType":5126,
			"count":2196,
			"max":[
				1.1175870895385742e-08,
				0.011771504767239094,
				0.0203519519418478
			],
			"min":[
				-0.006972566246986389,
				0,
				-4.656612873077393e-10
			],
			"type":"VEC3"
		},
		{
			"bufferView":59,
			"componentType":5126,
			"count":2196,
			"type":"VEC3"
		},
		{
			"bufferView":60,
			"componentType":5126,
			"count":2196,
			"max":[
				0.0010439902544021606,
				0.01289235707372427,
				0.02305476926267147
			],
			"min":[
				-0.0065412819385528564,
				0,
				-4.656612873077393e-10
			],
			"type":"VEC3"
		},
		{
			"bufferView":61,
			"componentType":5126,
			"count":2196,
			"type":"VEC3"
		},
		{
			"bufferView":62,
			"componentType":5126,
			"count":2196,
			"max":[
				0.002316877245903015,
				0.01402096077799797,
				0.025959927588701248
			],
			"min":[
				-0.006162002682685852,
				0,
				-4.656612873077393e-10
			],
			"type":"VEC3"
		},
		{
			"bufferView":63,
			"componentType":5126,
			"count":2196,
			"type":"VEC3"
		},
		{
			"bufferView":64,
			"componentType":5126,
			"count":2196,
			"max":[
				0.0037959441542625427,
				0.015143333002924919,
				0.02904432825744152
			],
			"min":[
				-0.0056955888867378235,
				0,
				-2.3283064365386963e-10
			],
			"type":"VEC3"
		},
		{
			"bufferView":65,
			"componentType":5126,
			"count":2196,
			"type":"VEC3"
		},
		{
			"componentType":5126,
			"count":2196,
			"max":[
				0.0054845139384269714,
				0.016245240345597267,
				0.032278820872306824
			],
			"min":[
				-0.005296014249324799,
				0,
				-2.3283064365386963e-10
			],
			"sparse":{
				"count":1848,
				"indices":{
					"bufferView":66,
					"componentType":5123
				},
				"values":{
					"bufferView":67
				}
			},
			"type":"VEC3"
		},
		{
			"bufferView":68,
			"componentType":5126,
			"count":2196,
			"type":"VEC3"
		},
		{
			"componentType":5126,
			"count":2196,
			"max":[
				0.007377125322818756,
				0.017312804237008095,
				0.035631999373435974
			],
			"min":[
				-0.004890576004981995,
				0,
				-3.22926789522171e-05
			],
			"sparse":{
				"count":1846,
				"indices":{
					"bufferView":69,
					"componentType":5123
				},
				"values":{
					"bufferView":70
				}
			},
			"type":"VEC3"
		},
		{
			"bufferView":71,
			"componentType":5126,
			"count":2196,
			"type":"VEC3"
		},
		{
			"bufferView":72,
			"componentType":5126,
			"count":2196,
			"max":[
				0.00947088748216629,
				0.018333224579691887,
				0.03907700255513191
			],
			"min":[
				-0.004466935992240906,
				0,
				-5.041249096393585e-05
			],
			"type":"VEC3"
		},
		{
			"bufferView":73,
			"componentType":5126,
			"count":2196,
			"type":"VEC3"
		},
		{
			"bufferView":74,
			"componentType":5126,
			"count":2196,
			"max":[
				0.01176055520772934,
				0.019295193254947662,
				0.042588990181684494
			],
			"min":[
				-0.0040262676775455475,
				0,
				-1.9689323380589485e-05
			],
			"type":"VEC3"
		},
		{
			"bufferView":75,
			"componentType":5126,
			"count":2196,
			"type":"VEC3"
		},
		{
			"bufferView":76,
			"componentType":5126,
			"count":2196,
			"max":[
				0.014239080250263214,
				0.020189318805933,
				0.04614563658833504
			],
			"min":[
				-0.0035760700702667236,
				0,
				-4.656612873077393e-10
			],
			"type":"VEC3"
		},
		{
			"bufferView":77,
			"componentType":5126,
			"count":2196,
			"type":"VEC3"
		},
		{
			"bufferView":78,
			"componentType":5126,
			"count":2196,
			"max":[
				0.016898207366466522,
				0.02100829780101776,
				0.04972713813185692
			],
			"min":[
				-0.0031106173992156982,
				0,
				-4.656612873077393e-10
			],
			"type":"VEC3"
		},
		{
			"bufferView":79,
			"componentType":5126,
			"count":2196,
			"type":"VEC3"
		},
		{
			"bufferView":80,
			"componentType":5126,
			"count":2196,
			"max":[
				0.019728951156139374,
				0.021746782585978508,
				0.053316373378038406
			],
			"min":[
				-0.0027206353843212128,
				0,
				-4.656612873077393e-10
			],
			"type":"VEC3"
		},
		{
			"bufferView":81,
			"componentType":5126,
			"count":2196,
			"type":"VEC3"
		},
		{
			"bufferView":82,
			"componentType":5126,
			"count":2196,
			"max":[
				0.022721849381923676,
				0.0224014725536108,
				0.056898701936006546
			],
			"min":[
				-0.0023779235780239105,
				0,
				-4.656612873077393e-10
			],
			"type":"VEC3"
		},
		{
			"bufferView":83,
			"componentType":5126,
			"count":2196,
			"type":"VEC3"
		},
		{
			"bufferView":84,
			"componentType":5126,
			"count":2196,
			"max":[
				0.02586730569601059,
				0.02297081984579563,
				0.06046166643500328
			],
			"min":[
				-0.0019632093608379364,
				0,
				-4.656612873077393e-10
			],
			"type":"VEC3"
		},
		{
			"bufferView":85,
			"componentType":5126,
			"count":2196,
			"type":"VEC3"
		},
		{
			"bufferView":86,
			"componentType":5126,
			"count":2196,
			"max":[
				0.029155753552913666,
				0.023454725742340088,
				0.06399494409561157
			],
			"min":[
				-0.0015101246535778046,
				0,
				-1.507229171693325e-06
			],
			"type":"VEC3"
		},
		{
			"bufferView":87,
			"componentType":5126,
			"count":2196,
			"type":"VEC3"
		},
		{
			"bufferView":88,
			"componentType":5126,
			"count":2196,
			"max":[
				0.03258071094751358,
				0.02385449968278408,
				0.06748984009027481
			],
			"min":[
				-0.0009928178042173386,
				0,
				-4.0688784793019295e-05
			],
			"type":"VEC3"
		},
		{
			"bufferView":89,
			"componentType":5126,
			"count":2196,
			"type":"VEC3"
		},
		{
			"bufferView":90,
			"componentType":5126,
			"count":2196,
			"max":[
				0.03613299876451492,
				0.02417244203388691,
				0.07093929499387741
			],
			"min":[
				-0.0005145242903381586,
				0,
				-0.0001454732846468687
			],
			"type":"VEC3"
		},
		{
			"bufferView":91,
			"componentType":5126,
			"count":2196,
			"type":"VEC3"
		},
		{
			"bufferView":92,
			"componentType":5126,
			"count":2196,
			"max":[
				0.03980039805173874,
				0.024411795660853386,
				0.07433728128671646
			],
			"min":[
				-0.00038765580393373966,
				0,
				-0.00022356468252837658
			],
			"type":"VEC3"
		},
		{
			"bufferView":93,
			"componentType":5126,
			"count":2196,
			"type":"VEC3"
		},
		{
			"bufferView":94,
			"componentType":5126,
			"count":2196,
			"max":[
				0.043574072420597076,
				0.024576446041464806,
				0.07767916470766068
			],
			"min":[
				-0.00023873359896242619,
				0,
				-0.00027689035050570965
			],
			"type":"VEC3"
		},
		{
			"bufferView":95,
			"componentType":5126,
			"count":2196,
			"type":"VEC3"
		},
		{
			"bufferView":96,
			"componentType":5126,
			"count":2196,
			"max":[
				0.0474453940987587,
				0.024670880287885666,
				0.0809609666466713
			],
			"min":[
				-7.3225237429142e-07,
				0,
				-0.00030787731520831585
			],
			"type":"VEC3"
		},
		{
			"bufferView":97,
			"componentType":5126,
			"count":2196,
			"type":"VEC3"
		},
		{
			"bufferView":98,
			"componentType":5126,
			"count":2196,
			"max":[
				0.05152621865272522,
				0.02469998225569725,
				0.08417963981628418
			],
			"min":[
				-3.725290298461914e-09,
				0,
				-0.0003187402617186308
			],
			"type":"VEC3"
		},
		{
			"bufferView":99,
			"componentType":5126,
			"count":2196,
			"type":"VEC3"
		},
		{
			"bufferView":100,
			"componentType":5126,
			"count":2196,
			"max":[
				0.05585336685180664,
				0.02466900646686554,
				0.0873328447341919
			],
			"min":[
				-7.450580596923828e-09,
				0,
				-0.00031178537756204605
			],
			"type":"VEC3"
		},
		{
			"bufferView":101,
			"componentType":5126,
			"count":2196,
			"type":"VEC3"
		},
		{
			"bufferView":102,
			"componentType":5126,
			"count":2196,
			"max":[
				0.06023572385311127,
				0.024583417922258377,
				0.09042918682098389
			],
			"min":[
				-7.450580596923828e-09,
				0,
				-0.0002886345610022545
			],
			"type":"VEC3"
		},
		{
			"bufferView":103,
			"componentType":5126,
			"count":2196,
			"type":"VEC3"
		},
		{
			"bufferView":104,
			"componentType":5126,
			"count":2196,
			"max":[
				0.06466493010520935,
				0.02444889396429062,
				0.09345939010381699
			],
			"min":[
				0,
				0,
				-0.0002508601173758507
			],
			"type":"VEC3"
		},
		{
			"bufferView":105,
			"componentType":5126,
			"count":2196,
			"type":"VEC3"
		},
		{
			"bufferView":106,
			"componentType":5126,
			"count":2196,
			"max":[
				0.06913305819034576,
				0.024271244183182716,
				0.09642025828361511
			],
			"min":[
				0,
				0,
				-0.00020001176744699478
			],
			"type":"VEC3"
		},
		{
			"bufferView":107,
			"componentType":5126,
			"count":2196,
			"type":"VEC3"
		},
		{
			"bufferView":108,
			"componentType":5126,
			"count":2196,
			"max":[
				0.07363276183605194,
				0.024056360125541687,
				0.09931133687496185
			],
			"min":[
				0,
				0,
				-0.00013748090714216232
			],
			"type":"VEC3"
		},
		{
			"bufferView":109,
			"componentType":5126,
			"count":2196,
			"type":"VEC3"
		},
		{
			"bufferView":110,
			"componentType":5126,
			"count":2196,
			"max":[
				0.07815694808959961,
				0.023810232058167458,
				0.10213242471218109
			],
			"min":[
				0,
				0,
				-0.00014992302749305964
			],
			"type":"VEC3"
		},
		{
			"bufferView":111,
			"componentType":5126,
			"count":2196,
			"type":"VEC3"
		},
		{
			"bufferView":112,
			"componentType":5126,
			"count":2196,
			"max":[
				0.08269917964935303,
				0.023538846522569656,
				0.10488361865282059
			],
			"min":[
				0,
				-2.7939677238464355e-09,
				-0.00018239638302475214
			],
			"type":"VEC3"
		},
		{
			"bufferView":113,
			"componentType":5126,
			"count":2196,
			"type":"VEC3"
		},
		{
			"bufferView":114,
			"componentType":5126,
			"count":2196,
			"max":[
				0.08725307881832123,
				0.02324819378554821,
				0.10756528377532959
			],
			"min":[
				0,
				-7.450580596923828e-09,
				-0.0002060892293229699
			],
			"type":"VEC3"
		},
		{
			"bufferView":115,
			"componentType":5126,
			"count":2196,
			"type":"VEC3"
		},
		{
			"bufferView":116,
			"componentType":5126,
			"count":2196,
			"max":[
				0.09181293845176697,
				0.022944331169128418,
				0.11017801612615585
			],
			"min":[
				0,
				0,
				-0.0002391338348388672
			],
			"type":"VEC3"
		},
		{
			"bufferView":117,
			"componentType":5126,
			"count":2196,
			"type":"VEC3"
		},
		{
			"bufferView":118,
			"componentType":5126,
			"count":2196,
			"max":[
				0.09637323021888733,
				0.022633226588368416,
				0.1127224788069725
			],
			"min":[
				0,
				0,
				-0.00033206306397914886
			],
			"type":"VEC3"
		},
		{
			"bufferView":119,
			"componentType":5126,
			"count":2196,
			"type":"VEC3"
		},
		{
			"bufferView":120,
			"componentType":5126,
			"count":2196,
			"max":[
				0.10092882812023163,
				0.022320836782455444,
				0.11519954353570938
			],
			"min":[
				0,
				0,
				-0.00041417405009269714
			],
			"type":"VEC3"
		},
		{
			"bufferView":121,
			"componentType":5126,
			"count":2196,
			"type":"VEC3"
		},
		{
			"bufferView":122,
			"componentType":5126,
			"count":2196,
			"max":[
				0.1054747998714447,
				0.022013042122125626,
				0.11761020869016647
			],
			"min":[
				0,
				0,
				-0.0004863578360527754
			],
			"type":"VEC3"
		},
		{
			"bufferView":123,
			"componentType":5126,
			"count":2196,
			"type":"VEC3"
		},
		{
			"bufferView":124,
			"componentType":5126,
			"count":2196,
			"max":[
				0.11001370847225189,
				0.021715765818953514,
				0.1199553832411766
			],
			"min":[
				0,
				0,
				-0.0005347991827875376
			],
			"type":"VEC3"
		},
		{
			"bufferView":125,
			"componentType":5126,
			"count":2196,
			"type":"VEC3"
		},
		{
			"bufferView":126,
			"componentType":5126,
			"count":2196,
			"max":[
				0.11453472077846527,
				0.021434839814901352,
				0.12223618477582932
			],
			"min":[
				0,
				0,
				-0.00047780200839042664
			],
			"type":"VEC3"
		},
		{
			"bufferView":127,
			"componentType":5126,
			"count":2196,
			"type":"VEC3"
		},
		{
			"bufferView":128,
			"componentType":5126,
			"count":2196,
			"max":[
				0.11903302371501923,
				0.02117602527141571,
				0.12445370107889175
			],
			"min":[
				0,
				0,
				-0.00030694552697241306
			],
			"type":"VEC3"
		},
		{
			"bufferView":129,
			"componentType":5126,
			"count":2196,
			"type":"VEC3"
		},
		{
			"bufferView":130,
			"componentType":5126,
			"count":2196,
			"max":[
				0.12350451946258545,
				0.02094501070678234,
				0.12660904228687286
			],
			"min":[
				-1.1332333087921143e-05,
				0,
				-9.2441332526505e-05
			],
			"type":"VEC3"
		},
		{
			"bufferView":131,
			"componentType":5126,
			"count":2196,
			"type":"VEC3"
		},
		{
			"bufferView":132,
			"componentType":5126,
			"count":2196,
			"max":[
				0.12794551253318787,
				0.020747486501932144,
				0.12870317697525024
			],
			"min":[
				-4.137307405471802e-05,
				0,
				-3.026798367500305e-09
			],
			"type":"VEC3"
		},
		{
			"bufferView":133,
			"componentType":5126,
			"count":2196,
			"type":"VEC3"
		},
		{
			"bufferView":134,
			"componentType":5126,
			"count":2196,
			"max":[
				0.13235220313072205,
				0.020589008927345276,
				0.13073721528053284
			],
			"min":[
				-9.53972339630127e-05,
				0,
				-1.862645149230957e-09
			],
			"type":"VEC3"
		},
		{
			"bufferView":135,
			"componentType":5126,
			"count":2196,
			"type":"VEC3"
		},
		{
			"bufferView":136,
			"componentType":5126,
			"count":2196,
			"max":[
				0.1367209255695343,
				0.020475156605243683,
				0.13271217048168182
			],
			"min":[
				-0.00018358230590820312,
				0,
				-1.862645149230957e-09
			],
			"type":"VEC3"
		},
		{
			"bufferView":137,
			"componentType":5126,
			"count":2196,
			"type":"VEC3"
		},
		{
			"bufferView":138,
			"componentType":5126,
			"count":2196,
			"max":[
				0.14104807376861572,
				0.020411372184753418,
				0.13462895154953003
			],
			"min":[
				-0.00026469677686691284,
				-1.862645149230957e-09,
				-7.2177499532699585e-09
			],
			"type":"VEC3"
		},
		{
			"bufferView":139,
			"componentType":5126,
			"count":2196,
			"type":"VEC3"
		},
		{
			"bufferView":140,
			"componentType":5126,
			"count":2196,
			"max":[
				0.14532992243766785,
				0.020403064787387848,
				0.13648852705955505
			],
			"min":[
				-0.00033636391162872314,
				0,
				-1.862645149230957e-09
			],
			"type":"VEC3"
		},
		{
			"bufferView":141,
			"componentType":5126,
			"count":2196,
			"type":"VEC3"
		},
		{
			"bufferView":142,
			"componentType":5126,
			"count":2196,
			"max":[
				0.1495627760887146,
				0.020455602556467056,
				0.13829177618026733
			],
			"min":[
				-0.0003965124487876892,
				0,
				-1.862645149230957e-09
			],
			"type":"VEC3"
		},
		{
			"bufferView":143,
			"componentType":5126,
			"count":2196,
			"type":"VEC3"
		},
		{
			"bufferView":144,
			"componentType":5126,
			"count":2196,
			"max":[
				0.15374282002449036,
				0.02057432010769844,
				0.14003953337669373
			],
			"min":[
				-0.0003603026270866394,
				0,
				1.5894108855718514e-06
			],
			"type":"VEC3"
		},
		{
			"bufferView":145,
			"componentType":5126,
			"count":2196,
			"type":"VEC3"
		},
		{
			"bufferView":146,
			"componentType":5126,
			"count":2196,
			"max":[
				0.15786589682102203,
				0.02076435089111328,
				0.1417325884103775
			],
			"min":[
				-0.00031698495149612427,
				0,
				6.307492731139064e-05
			],
			"type":"VEC3"
		},
		{
			"bufferView":147,
			"componentType":5126,
			"count":2196,
			"type":"VEC3"
		},
		{
			"bufferView":148,
			"componentType":5126,
			"count":2196,
			"max":[
				0.16190287470817566,
				0.0211823470890522,
				0.14339277148246765
			],
			"min":[
				-0.00037460774183273315,
				0,
				0.00020964269060641527
			],
			"type":"VEC3"
		},
		{
			"bufferView":149,
			"componentType":5126,
			"count":2196,
			"type":"VEC3"
		},
		{
			"bufferView":150,
			"componentType":5126,
			"count":2196,
			"max":[
				0.16580921411514282,
				0.022053852677345276,
				0.14502303302288055
			],
			"min":[
				-0.0004207119345664978,
				0,
				0.0004358720616437495
			],
			"type":"VEC3"
		},
		{
			"bufferView":151,
			"componentType":5126,
			"count":2196,
			"type":"VEC3"
		},
		{
			"bufferView":152,
			"componentType":5126,
			"count":2196,
			"max":[
				0.16954156756401062,
				0.02352183312177658,
				0.14662666618824005
			],
			"min":[
				-0.0004541054368019104,
				0,
				0.0007363241747952998
			],
			"type":"VEC3"
		},
		{
			"bufferView":153,
			"componentType":5126,
			"count":2196,
			"type":"VEC3"
		},
		{
			"bufferView":154,
			"componentType":5126,
			"count":2196,
			"max":[
				0.17399151623249054,
				0.025800064206123352,
				0.14870613813400269
			],
			"min":[
				-0.0004770606756210327,
				-1.6298145055770874e-08,
				0.0012325476855039597
			],
			"type":"VEC3"
		},
		{
			"bufferView":155,
			"componentType":5126,
			"count":2196,
			"type":"VEC3"
		},
		{
			"bufferView":156,
			"componentType":5126,
			"count":2196,
			"max":[
				0.18051254749298096,
				0.029231373220682144,
				0.1520262211561203
			],
			"min":[
				-0.0007251054048538208,
				2.7554109692573547e-05,
				0.0022612048778682947
			],
			"type":"VEC3"
		},
		{
			"bufferView":157,
			"componentType":5126,
			"count":2196,
			"type":"VEC3"
		},
		{
			"bufferView":158,
			"componentType":5126,
			"count":2196,
			"max":[
				0.18626768887043,
				0.050672128796577454,
				0.1572965681552887
			],
			"min":[
				-0.005355611443519592,
				0.01317838579416275,
				0.004438319243490696
			],
			"type":"VEC3"
		},
		{
			"bufferView":159,
			"componentType":5126,
			"count":2196,
			"type":"VEC3"
		},
		{
			"bufferView":160,
			"componentType":5126,
			"count":2196,
			"max":[
				0.1956947296857834,
				0.07249094545841217,
				0.16627056896686554
			],
			"min":[
				-0.007290273904800415,
				0.023052431643009186,
				0.009384441189467907
			],
			"type":"VEC3"
		},
		{
			"bufferView":161,
			"componentType":5126,
			"count":2196,
			"type":"VEC3"
		},
		{
			"bufferView":162,
			"componentType":5126,
			"count":2196,
			"max":[
				0.2150174081325531,
				0.09704716503620148,
				0.18533417582511902
			],
			"min":[
				-0.005427740514278412,
				0.029618848115205765,
				0.02298298105597496
			],
			"type":"VEC3"
		},
		{
			"bufferView":163,
			"componentType":5126,
			"count":2196,
			"type":"VEC3"
		},
		{
			"bufferView":164,
			"componentType":5126,
			"count":2196,
			"max":[
				0.2680276930332184,
				0.13832522928714752,
				0.23102699220180511
			],
			"min":[
				0.009911850094795227,
				0.042004991322755814,
				0.06570813804864883
			],
			"type":"VEC3"
		},
		{
			"bufferView":165,
			"componentType":5126,
			"count":2196,
			"type":"VEC3"
		},
		{
			"bufferView":166,
			"componentType":5126,
			"count":2196,
			"max":[
				0.2779344320297241,
				0.15067727863788605,
				0.24726955592632294
			],
			"min":[
				0.016265660524368286,
				0.04582856968045235,
				0.07848528772592545
			],
			"type":"VEC3"
		},
		{
			"bufferView":167,
			"componentType":5126,
			"count":2196,
			"type":"VEC3"
		},
		{
			"bufferView":168,
			"componentType":5126,
			"count":2196,
			"max":[
				0.2743472158908844,
				0.1510966569185257,
				0.25115975737571716
			],
			"min":[
				0.016265660524368286,
				0.04583321884274483,
				0.07848528772592545
			],
			"type":"VEC3"
		},
		{
			"bufferView":169,
			"componentType":5126,
			"count":2196,
			"type":"VEC3"
		},
		{
			"bufferView":170,
			"componentType":5126,
			"count":2196,
			"max":[
				0.2727043032646179,
				0.1509416252374649,
				0.2532797157764435
			],
			"min":[
				0.016265660524368286,
				0.04580270126461983,
				0.07848528772592545
			],
			"type":"VEC3"
		},
		{
			"bufferView":171,
			"componentType":5126,
			"count":2196,
			"type":"VEC3"
		},
		{
			"bufferView":172,
			"componentType":5126,
			"count":2196,
			"max":[
				0.27210551500320435,
				0.1505807787179947,
				0.25440311431884766
			],
			"min":[
				0.016265660524368286,
				0.04575162008404732,
				0.07848528772592545
			],
			"type":"VEC3"
		},
		{
			"bufferView":173,
			"componentType":5126,
			"count":2196,
			"type":"VEC3"
		},
		{
			"bufferView":174,
			"componentType":5126,
			"count":2196,
			"max":[
				0.2721562087535858,
				0.15012164413928986,
				0.2549022138118744
			],
			"min":[
				0.016265660524368286,
				0.04568754509091377,
				0.07848528772592545
			],
			"type":"VEC3"
		},
		{
			"bufferView":175,
			"componentType":5126,
			"count":2196,
			"type":"VEC3"
		},
		{
			"bufferView":176,
			"componentType":5126,
			"count":2196,
			"max":[
				0.27246901392936707,
				0.14960236847400665,
				0.2551778256893158
			],
			"min":[
				0.016265660524368286,
				0.04561595991253853,
				0.07848528772592545
			],
			"type":"VEC3"
		},
		{
			"bufferView":177,
			"componentType":5126,
			"count":2196,
			"type":"VEC3"
		},
		{
			"bufferView":178,
			"componentType":5126,
			"count":2196,
			"max":[
				0.27280759811401367,
				0.14903892576694489,
				0.2554762363433838
			],
			"min":[
				0.016265660524368286,
				0.04554067924618721,
				0.07848528772592545
			],
			"type":"VEC3"
		},
		{
			"bufferView":179,
			"componentType":5126,
			"count":2196,
			"type":"VEC3"
		},
		{
			"bufferView":180,
			"componentType":5126,
			"count":2196,
			"max":[
				0.27316734194755554,
				0.14843840897083282,
				0.25579363107681274
			],
			"min":[
				0.016265660524368286,
				0.04546331241726875,
				0.07848528772592545
			],
			"type":"VEC3"
		},
		{
			"bufferView":181,
			"componentType":5126,
			"count":2196,
			"type":"VEC3"
		},
		{
			"bufferView":182,
			"componentType":5126,
			"count":2196,
			"max":[
				0.2735446095466614,
				0.14780665934085846,
				0.2561267912387848
			],
			"min":[
				0.016265660524368286,
				0.045385051518678665,
				0.07848528772592545
			],
			"type":"VEC3"
		},
		{
			"bufferView":183,
			"componentType":5126,
			"count":2196,
			"type":"VEC3"
		},
		{
			"bufferView":184,
			"componentType":5126,
			"count":2196,
			"max":[
				0.27393639087677,
				0.14714862406253815,
				0.25647303462028503
			],
			"min":[
				0.016265660524368286,
				0.04530702903866768,
				0.07848528772592545
			],
			"type":"VEC3"
		},
		{
			"bufferView":185,
			"componentType":5126,
			"count":2196,
			"type":"VEC3"
		},
		{
			"bufferView":186,
			"componentType":5126,
			"count":2196,
			"max":[
				0.2743399143218994,
				0.1464684158563614,
				0.2568301260471344
			],
			"min":[
				0.016265660524368286,
				0.04523007944226265,
				0.07848528772592545
			],
			"type":"VEC3"
		},
		{
			"bufferView":187,
			"componentType":5126,
			"count":2196,
			"type":"VEC3"
		},
		{
			"bufferView":188,
			"componentType":5126,
			"count":2196,
			"max":[
				0.27475303411483765,
				0.14576943218708038,
				0.2571960389614105
			],
			"min":[
				0.016265660524368286,
				0.045155156403779984,
				0.07848528772592545
			],
			"type":"VEC3"
		},
		{
			"bufferView":189,
			"componentType":5126,
			"count":2196,
			"type":"VEC3"
		},
		{
			"bufferView":190,
			"componentType":5126,
			"count":2196,
			"max":[
				0.2751736640930176,
				0.14505501091480255,
				0.25756919384002686
			],
			"min":[
				0.016265660524368286,
				0.04508279636502266,
				0.07848528772592545
			],
			"type":"VEC3"
		},
		{
			"bufferView":191,
			"componentType":5126,
			"count":2196,
			"type":"VEC3"
		},
		{
			"bufferView":192,
			"componentType":5126,
			"count":2196,
			"max":[
				0.2756001651287079,
				0.14432771503925323,
				0.2579479515552521
			],
			"min":[
				0.016265660524368286,
				0.04501359537243843,
				0.07848528772592545
			],
			"type":"VEC3"
		},
		{
			"bufferView":193,
			"componentType":5126,
			"count":2196,
			"type":"VEC3"
		},
		{
			"bufferView":194,
			"componentType":5126,
			"count":2196,
			"max":[
				0.2760307788848877,
				0.14359016716480255,
				0.2583310604095459
			],
			"min":[
				0.016265660524368286,
				0.044948089867830276,
				0.07848528772592545
			],
			"type":"VEC3"
		},
		{
			"bufferView":195,
			"componentType":5126,
			"count":2196,
			"type":"VEC3"
		},
		{
			"bufferView":196,
			"componentType":5126,
			"count":2196,
			"max":[
				0.2764640748500824,
				0.1428448110818863,
				0.2587171494960785
			],
			"min":[
				0.016265660524368286,
				0.044886816293001175,
				0.07848528772592545
			],
			"type":"VEC3"
		},
		{
			"bufferView":197,
			"componentType":5126,
			"count":2196,
			"type":"VEC3"
		},
		{
			"bufferView":198,
			"componentType":5126,
			"count":2196,
			"max":[
				0.276898592710495,
				0.14209385216236115,
				0.25910502672195435
			],
			"min":[
				0.016265660524368286,
				0.04483001306653023,
				0.07848528772592545
			],
			"type":"VEC3"
		},
		{
			"bufferView":199,
			"componentType":5126,
			"count":2196,
			"type":"VEC3"
		},
		{
			"bufferView":200,
			"componentType":5126,
			"count":2196,
			"max":[
				0.2773331105709076,
				0.14133943617343903,
				0.2594936490058899
			],
			"min":[
				0.016265660524368286,
				0.04477803781628609,
				0.07848528772592545
			],
			"type":"VEC3"
		},
		{
			"bufferView":201,
			"componentType":5126,
			"count":2196,
			"type":"VEC3"
		},
		{
			"bufferView":202,
			"componentType":5126,
			"count":2196,
			"max":[
				0.27776631712913513,
				0.1405835896730423,
				0.25988179445266724
			],
			"min":[
				0.016265660524368286,
				0.04473118856549263,
				0.07848528772592545
			],
			"type":"VEC3"
		},
		{
			"bufferView":203,
			"componentType":5126,
			"count":2196,
			"type":"VEC3"
		},
		{
			"bufferView":204,
			"componentType":5126,
			"count":2196,
			"max":[
				0.2781967520713806,
				0.13982869684696198,
				0.2602683901786804
			],
			"min":[
				0.016265660524368286,
				0.04468964412808418,
				0.07848528772592545
			],
			"type":"VEC3"
		},
		{
			"bufferView":205,
			"componentType":5126,
			"count":2196,
			"type":"VEC3"
		},
		{
			"bufferView":206,
			"componentType":5126,
			"count":2196,
			"max":[
				0.2786232829093933,
				0.13907690346240997,
				0.26065221428871155
			],
			"min":[
				0.016265660524368286,
				0.04465358331799507,
				0.07848528772592545
			],
			"type":"VEC3"
		},
		{
			"bufferView":207,
			"componentType":5126,
			"count":2196,
			"type":"VEC3"
		},
		{
			"bufferView":208,
			"componentType":5126,
			"count":2196,
			"max":[
				0.27904435992240906,
				0.13833071291446686,
				0.2610321044921875
			],
			"min":[
				0.016265660524368286,
				0.04462306573987007,
				0.07848528772592545
			],
			"type":"VEC3"
		},
		{
			"bufferView":209,
			"componentType":5126,
			"count":2196,
			"type":"VEC3"
		},
		{
			"bufferView":210,
			"componentType":5126,
			"count":2196,
			"max":[
				0.27945858240127563,
				0.1375928670167923,
				0.26140663027763367
			],
			"min":[
				0.016265660524368286,
				0.044598210602998734,
				0.07848528772592545
			],
			"type":"VEC3"
		},
		{
			"bufferView":211,
			"componentType":5126,
			"count":2196,
			"type":"VEC3"
		},
		{
			"bufferView":212,
			"componentType":5126,
			"count":2196,
			"max":[
				0.27986404299736023,
				0.13686658442020416,
				0.2617742717266083
			],
			"min":[
				0.016265660524368286,
				0.04457883909344673,
				0.07848528772592545
			],
			"type":"VEC3"
		},
		{
			"bufferView":213,
			"componentType":5126,
			"count":2196,
			"type":"VEC3"
		},
		{
			"bufferView":214,
			"componentType":5126,
			"count":2196,
			"max":[
				0.2802588939666748,
				0.13615550100803375,
				0.26213309168815613
			],
			"min":[
				0.016265660524368286,
				0.04456501081585884,
				0.07848528772592545
			],
			"type":"VEC3"
		},
		{
			"bufferView":215,
			"componentType":5126,
			"count":2196,
			"type":"VEC3"
		},
		{
			"bufferView":216,
			"componentType":5126,
			"count":2196,
			"max":[
				0.2806403934955597,
				0.13546456396579742,
				0.26248082518577576
			],
			"min":[
				0.016265660524368286,
				0.04448961094021797,
				0.07848528772592545
			],
			"type":"VEC3"
		},
		{
			"bufferView":217,
			"componentType":5126,
			"count":2196,
			"type":"VEC3"
		},
		{
			"bufferView":218,
			"componentType":5126,
			"count":2196,
			"max":[
				0.2810053527355194,
				0.1348000317811966,
				0.26281431317329407
			],
			"min":[
				0.016265660524368286,
				0.04437016323208809,
				0.07848528772592545
			],
			"type":"VEC3"
		},
		{
			"bufferView":219,
			"componentType":5126,
			"count":2196,
			"type":"VEC3"
		},
		{
			"bufferView":220,
			"componentType":5126,
			"count":2196,
			"max":[
				0.28134921193122864,
				0.1341705471277237,
				0.2631293833255768
			],
			"min":[
				0.016265660524368286,
				0.04426072910428047,
				0.07848528772592545
			],
			"type":"VEC3"
		},
		{
			"bufferView":221,
			"componentType":5126,
			"count":2196,
			"type":"VEC3"
		},
		{
			"bufferView":222,
			"componentType":5126,
			"count":2196,
			"max":[
				0.281665176153183,
				0.1335892230272293,
				0.26341959834098816
			],
			"min":[
				0.016265660524368286,
				0.044162917882204056,
				0.07848528772592545
			],
			"type":"VEC3"
		},
		{
			"bufferView":223,
			"componentType":5126,
			"count":2196,
			"type":"VEC3"
		},
		{
			"bufferView":224,
			"componentType":5126,
			"count":2196,
			"max":[
				0.2819419801235199,
				0.13307739794254303,
				0.2636745572090149
			],
			"min":[
				0.016265660524368286,
				0.044079411774873734,
				0.07848528772592545
			],
			"type":"VEC3"
		},
		{
			"bufferView":225,
			"componentType":5126,
			"count":2196,
			"type":"VEC3"
		},
		{
			"bufferView":226,
			"componentType":5126,
			"count":2196,
			"max":[
				0.2821584641933441,
				0.13267560303211212,
				0.26387426257133484
			],
			"min":[
				0.016265660524368286,
				0.044015515595674515,
				0.07848528772592545
			],
			"type":"VEC3"
		},
		{
			"bufferView":227,
			"componentType":5126,
			"count":2196,
			"type":"VEC3"
		},
		{
			"bufferView":228,
			"componentType":5126,
			"count":2196,
			"max":[
				0.2822624742984772,
				0.13248200714588165,
				0.26397037506103516
			],
			"min":[
				0.016265660524368286,
				0.04398541525006294,
				0.07848528772592545
			],
			"type":"VEC3"
		},
		{
			"bufferView":229,
			"componentType":5126,
			"count":2196,
			"type":"VEC3"
		},
		{
			"bufferView":230,
			"componentType":5126,
			"count":2196,
			"max":[
				0.2822624742984772,
				0.13248200714588165,
				0.26397037506103516
			],
			"min":[
				0.016265660524368286,
				0.04398541525006294,
				0.07848528772592545
			],
			"type":"VEC3"
		},
		{
			"bufferView":231,
			"componentType":5126,
			"count":2196,
			"type":"VEC3"
		},
		{
			"bufferView":232,
			"componentType":5126,
			"count":2196,
			"max":[
				0.2822624742984772,
				0.13248200714588165,
				0.26397037506103516
			],
			"min":[
				0.016265660524368286,
				0.04398541525006294,
				0.07848528772592545
			],
			"type":"VEC3"
		},
		{
			"bufferView":233,
			"componentType":5126,
			"count":2196,
			"type":"VEC3"
		},
		{
			"bufferView":234,
			"componentType":5126,
			"count":2196,
			"max":[
				0.2822624742984772,
				0.13248200714588165,
				0.26397037506103516
			],
			"min":[
				0.016265660524368286,
				0.04398541525006294,
				0.07848528772592545
			],
			"type":"VEC3"
		},
		{
			"bufferView":235,
			"componentType":5126,
			"count":2196,
			"type":"VEC3"
		},
		{
			"bufferView":236,
			"componentType":5126,
			"count":2196,
			"max":[
				0.2822624742984772,
				0.13248200714588165,
				0.26397037506103516
			],
			"min":[
				0.016265660524368286,
				0.04398541525006294,
				0.07848528772592545
			],
			"type":"VEC3"
		},
		{
			"bufferView":237,
			"componentType":5126,
			"count":2196,
			"type":"VEC3"
		},
		{
			"bufferView":238,
			"componentType":5126,
			"count":2196,
			"max":[
				0.2822624742984772,
				0.13248200714588165,
				0.26397037506103516
			],
			"min":[
				0.016265660524368286,
				0.04398541525006294,
				0.07848528772592545
			],
			"type":"VEC3"
		},
		{
			"bufferView":239,
			"componentType":5126,
			"count":2196,
			"type":"VEC3"
		},
		{
			"bufferView":240,
			"componentType":5126,
			"count":2196,
			"max":[
				0.2822624742984772,
				0.13248200714588165,
				0.26397037506103516
			],
			"min":[
				0.016265660524368286,
				0.04398541525006294,
				0.07848528772592545
			],
			"type":"VEC3"
		},
		{
			"bufferView":241,
			"componentType":5126,
			"count":2196,
			"type":"VEC3"
		},
		{
			"bufferView":242,
			"componentType":5126,
			"count":2196,
			"max":[
				0.2822624742984772,
				0.13248200714588165,
				0.26397037506103516
			],
			"min":[
				0.016265660524368286,
				0.04398541525006294,
				0.07848528772592545
			],
			"type":"VEC3"
		},
		{
			"bufferView":243,
			"componentType":5126,
			"count":2196,
			"type":"VEC3"
		},
		{
			"bufferView":244,
			"componentType":5126,
			"count":2196,
			"max":[
				0.2822624742984772,
				0.13248200714588165,
				0.26397037506103516
			],
			"min":[
				0.016265660524368286,
				0.04398541525006294,
				0.07848528772592545
			],
			"type":"VEC3"
		},
		{
			"bufferView":245,
			"componentType":5126,
			"count":2196,
			"type":"VEC3"
		},
		{
			"bufferView":246,
			"componentType":5126,
			"count":2196,
			"max":[
				0.2822624742984772,
				0.13248200714588165,
				0.26397037506103516
			],
			"min":[
				0.016265660524368286,
				0.04398541525006294,
				0.07848528772592545
			],
			"type":"VEC3"
		},
		{
			"bufferView":247,
			"componentType":5126,
			"count":2196,
			"type":"VEC3"
		},
		{
			"bufferView":248,
			"componentType":5126,
			"count":2196,
			"max":[
				0.2822624742984772,
				0.13248200714588165,
				0.26397037506103516
			],
			"min":[
				0.016265660524368286,
				0.04398541525006294,
				0.07848528772592545
			],
			"type":"VEC3"
		},
		{
			"bufferView":249,
			"componentType":5126,
			"count":2196,
			"type":"VEC3"
		},
		{
			"bufferView":250,
			"componentType":5126,
			"count":2196,
			"max":[
				0.2822624742984772,
				0.13248200714588165,
				0.26397037506103516
			],
			"min":[
				0.016265660524368286,
				0.04398541525006294,
				0.07848528772592545
			],
			"type":"VEC3"
		},
		{
			"bufferView":251,
			"componentType":5126,
			"count":2196,
			"type":"VEC3"
		},
		{
			"bufferView":252,
			"componentType":5126,
			"count":2196,
			"max":[
				0.2822624742984772,
				0.13248200714588165,
				0.26397037506103516
			],
			"min":[
				0.016265660524368286,
				0.04398541525006294,
				0.07848528772592545
			],
			"type":"VEC3"
		},
		{
			"bufferView":253,
			"componentType":5126,
			"count":2196,
			"type":"VEC3"
		},
		{
			"bufferView":254,
			"componentType":5126,
			"count":2196,
			"max":[
				0.2822624742984772,
				0.13248200714588165,
				0.26397037506103516
			],
			"min":[
				0.016265660524368286,
				0.04398541525006294,
				0.07848528772592545
			],
			"type":"VEC3"
		},
		{
			"bufferView":255,
			"componentType":5126,
			"count":2196,
			"type":"VEC3"
		},
		{
			"bufferView":256,
			"componentType":5126,
			"count":2196,
			"max":[
				0.2822624742984772,
				0.13248200714588165,
				0.26397037506103516
			],
			"min":[
				0.016265660524368286,
				0.04398541525006294,
				0.07848528772592545
			],
			"type":"VEC3"
		},
		{
			"bufferView":257,
			"componentType":5126,
			"count":2196,
			"type":"VEC3"
		},
		{
			"bufferView":258,
			"componentType":5126,
			"count":535,
			"max":[
				0.11667916923761368,
				0.17784753441810608,
				0.010145775973796844
			],
			"min":[
				-0.11762097477912903,
				-0.20491836965084076,
				-0.010145775973796844
			],
			"type":"VEC3"
		},
		{
			"bufferView":259,
			"componentType":5126,
			"count":535,
			"type":"VEC3"
		},
		{
			"bufferView":260,
			"componentType":5126,
			"count":535,
			"type":"VEC2"
		},
		{
			"bufferView":261,
			"componentType":5123,
			"count":3144,
			"type":"SCALAR"
		},
		{
			"bufferView":262,
			"componentType":5126,
			"count":18,
			"max":[
				1.65
			],
			"min":[
				1.3666666666666667
			],
			"type":"SCALAR"
		},
		{
			"bufferView":263,
			"componentType":5126,
			"count":18,
			"type":"VEC3"
		},
		{
			"bufferView":264,
			"componentType":5126,
			"count":96,
			"max":[
				1.65
			],
			"min":[
				0.06666666666666667
			],
			"type":"SCALAR"
		},
		{
			"bufferView":265,
			"componentType":5126,
			"count":96,
			"type":"VEC3"
		},
		{
			"bufferView":266,
			"componentType":5126,
			"count":96,
			"type":"VEC4"
		},
		{
			"bufferView":267,
			"componentType":5126,
			"count":12096,
			"type":"SCALAR"
		}
	],
	"bufferViews":[
		{
			"buffer":0,
			"byteLength":26352,
			"byteOffset":0,
			"target":34962
		},
		{
			"buffer":0,
			"byteLength":26352,
			"byteOffset":26352,
			"target":34962
		},
		{
			"buffer":0,
			"byteLength":17568,
			"byteOffset":52704,
			"target":34962
		},
		{
			"buffer":0,
			"byteLength":26304,
			"byteOffset":70272,
			"target":34963
		},
		{
			"buffer":0,
			"byteLength":26352,
			"byteOffset":96576,
			"target":34962
		},
		{
			"buffer":0,
			"byteLength":26352,
			"byteOffset":122928,
			"target":34962
		},
		{
			"buffer":0,
			"byteLength":26352,
			"byteOffset":149280,
			"target":34962
		},
		{
			"buffer":0,
			"byteLength":26352,
			"byteOffset":175632,
			"target":34962
		},
		{
			"buffer":0,
			"byteLength":26352,
			"byteOffset":201984,
			"target":34962
		},
		{
			"buffer":0,
			"byteLength":26352,
			"byteOffset":228336,
			"target":34962
		},
		{
			"buffer":0,
			"byteLength":26352,
			"byteOffset":254688,
			"target":34962
		},
		{
			"buffer":0,
			"byteLength":26352,
			"byteOffset":281040,
			"target":34962
		},
		{
			"buffer":0,
			"byteLength":26352,
			"byteOffset":307392,
			"target":34962
		},
		{
			"buffer":0,
			"byteLength":26352,
			"byteOffset":333744,
			"target":34962
		},
		{
			"buffer":0,
			"byteLength":26352,
			"byteOffset":360096,
			"target":34962
		},
		{
			"buffer":0,
			"byteLength":26352,
			"byteOffset":386448,
			"target":34962
		},
		{
			"buffer":0,
			"byteLength":26352,
			"byteOffset":412800,
			"target":34962
		},
		{
			"buffer":0,
			"byteLength":26352,
			"byteOffset":439152,
			"target":34962
		},
		{
			"buffer":0,
			"byteLength":26352,
			"byteOffset":465504,
			"target":34962
		},
		{
			"buffer":0,
			"byteLength":26352,
			"byteOffset":491856,
			"target":34962
		},
		{
			"buffer":0,
			"byteLength":26352,
			"byteOffset":518208,
			"target":34962
		},
		{
			"buffer":0,
			"byteLength":26352,
			"byteOffset":544560,
			"target":34962
		},
		{
			"buffer":0,
			"byteLength":26352,
			"byteOffset":570912,
			"target":34962
		},
		{
			"buffer":0,
			"byteLength":26352,
			"byteOffset":597264,
			"target":34962
		},
		{
			"buffer":0,
			"byteLength":26352,
			"byteOffset":623616,
			"target":34962
		},
		{
			"buffer":0,
			"byteLength":26352,
			"byteOffset":649968,
			"target":34962
		},
		{
			"buffer":0,
			"byteLength":26352,
			"byteOffset":676320,
			"target":34962
		},
		{
			"buffer":0,
			"byteLength":26352,
			"byteOffset":702672,
			"target":34962
		},
		{
			"buffer":0,
			"byteLength":26352,
			"byteOffset":729024,
			"target":34962
		},
		{
			"buffer":0,
			"byteLength":26352,
			"byteOffset":755376,
			"target":34962
		},
		{
			"buffer":0,
			"byteLength":26352,
			"byteOffset":781728,
			"target":34962
		},
		{
			"buffer":0,
			"byteLength":26352,
			"byteOffset":808080,
			"target":34962
		},
		{
			"buffer":0,
			"byteLength":26352,
			"byteOffset":834432,
			"target":34962
		},
		{
			"buffer":0,
			"byteLength":26352,
			"byteOffset":860784,
			"target":34962
		},
		{
			"buffer":0,
			"byteLength":26352,
			"byteOffset":887136,
			"target":34962
		},
		{
			"buffer":0,
			"byteLength":26352,
			"byteOffset":913488,
			"target":34962
		},
		{
			"buffer":0,
			"byteLength":26352,
			"byteOffset":939840,
			"target":34962
		},
		{
			"buffer":0,
			"byteLength":26352,
			"byteOffset":966192,
			"target":34962
		},
		{
			"buffer":0,
			"byteLength":26352,
			"byteOffset":992544,
			"target":34962
		},
		{
			"buffer":0,
			"byteLength":26352,
			"byteOffset":1018896,
			"target":34962
		},
		{
			"buffer":0,
			"byteLength":26352,
			"byteOffset":1045248,
			"target":34962
		},
		{
			"buffer":0,
			"byteLength":26352,
			"byteOffset":1071600,
			"target":34962
		},
		{
			"buffer":0,
			"byteLength":26352,
			"byteOffset":1097952,
			"target":34962
		},
		{
			"buffer":0,
			"byteLength":26352,
			"byteOffset":1124304,
			"target":34962
		},
		{
			"buffer":0,
			"byteLength":26352,
			"byteOffset":1150656,
			"target":34962
		},
		{
			"buffer":0,
			"byteLength":26352,
			"byteOffset":1177008,
			"target":34962
		},
		{
			"buffer":0,
			"byteLength":26352,
			"byteOffset":1203360,
			"target":34962
		},
		{
			"buffer":0,
			"byteLength":26352,
			"byteOffset":1229712,
			"target":34962
		},
		{
			"buffer":0,
			"byteLength":26352,
			"byteOffset":1256064,
			"target":34962
		},
		{
			"buffer":0,
			"byteLength":26352,
			"byteOffset":1282416,
			"target":34962
		},
		{
			"buffer":0,
			"byteLength":26352,
			"byteOffset":1308768,
			"target":34962
		},
		{
			"buffer":0,
			"byteLength":26352,
			"byteOffset":1335120,
			"target":34962
		},
		{
			"buffer":0,
			"byteLength":26352,
			"byteOffset":1361472,
			"target":34962
		},
		{
			"buffer":0,
			"byteLength":26352,
			"byteOffset":1387824,
			"target":34962
		},
		{
			"buffer":0,
			"byteLength":26352,
			"byteOffset":1414176,
			"target":34962
		},
		{
			"buffer":0,
			"byteLength":26352,
			"byteOffset":1440528,
			"target":34962
		},
		{
			"buffer":0,
			"byteLength":26352,
			"byteOffset":1466880,
			"target":34962
		},
		{
			"buffer":0,
			"byteLength":26352,
			"byteOffset":1493232,
			"target":34962
		},
		{
			"buffer":0,
			"byteLength":26352,
			"byteOffset":1519584,
			"target":34962
		},
		{
			"buffer":0,
			"byteLength":26352,
			"byteOffset":1545936,
			"target":34962
		},
		{
			"buffer":0,
			"byteLength":26352,
			"byteOffset":1572288,
			"target":34962
		},
		{
			"buffer":0,
			"byteLength":26352,
			"byteOffset":1598640,
			"target":34962
		},
		{
			"buffer":0,
			"byteLength":26352,
			"byteOffset":1624992,
			"target":34962
		},
		{
			"buffer":0,
			"byteLength":26352,
			"byteOffset":1651344,
			"target":34962
		},
		{
			"buffer":0,
			"byteLength":26352,
			"byteOffset":1677696,
			"target":34962
		},
		{
			"buffer":0,
			"byteLength":26352,
			"byteOffset":1704048,
			"target":34962
		},
		{
			"buffer":0,
			"byteLength":3696,
			"byteOffset":1730400
		},
		{
			"buffer":0,
			"byteLength":22176,
			"byteOffset":1734096
		},
		{
			"buffer":0,
			"byteLength":26352,
			"byteOffset":1756272,
			"target":34962
		},
		{
			"buffer":0,
			"byteLength":3692,
			"byteOffset":1782624
		},
		{
			"buffer":0,
			"byteLength":22152,
			"byteOffset":1786316
		},
		{
			"buffer":0,
			"byteLength":26352,
			"byteOffset":1808468,
			"target":34962
		},
		{
			"buffer":0,
			"byteLength":26352,
			"byteOffset":1834820,
			"target":34962
		},
		{
			"buffer":0,
			"byteLength":26352,
			"byteOffset":1861172,
			"target":34962
		},
		{
			"buffer":0,
			"byteLength":26352,
			"byteOffset":1887524,
			"target":34962
		},
		{
			"buffer":0,
			"byteLength":26352,
			"byteOffset":1913876,
			"target":34962
		},
		{
			"buffer":0,
			"byteLength":26352,
			"byteOffset":1940228,
			"target":34962
		},
		{
			"buffer":0,
			"byteLength":26352,
			"byteOffset":1966580,
			"target":34962
		},
		{
			"buffer":0,
			"byteLength":26352,
			"byteOffset":1992932,
			"target":34962
		},
		{
			"buffer":0,
			"byteLength":26352,
			"byteOffset":2019284,
			"target":34962
		},
		{
			"buffer":0,
			"byteLength":26352,
			"byteOffset":2045636,
			"target":34962
		},
		{
			"buffer":0,
			"byteLength":26352,
			"byteOffset":2071988,
			"target":34962
		},
		{
			"buffer":0,
			"byteLength":26352,
			"byteOffset":2098340,
			"target":34962
		},
		{
			"buffer":0,
			"byteLength":26352,
			"byteOffset":2124692,
			"target":34962
		},
		{
			"buffer":0,
			"byteLength":26352,
			"byteOffset":2151044,
			"target":34962
		},
		{
			"buffer":0,
			"byteLength":26352,
			"byteOffset":2177396,
			"target":34962
		},
		{
			"buffer":0,
			"byteLength":26352,
			"byteOffset":2203748,
			"target":34962
		},
		{
			"buffer":0,
			"byteLength":26352,
			"byteOffset":2230100,
			"target":34962
		},
		{
			"buffer":0,
			"byteLength":26352,
			"byteOffset":2256452,
			"target":34962
		},
		{
			"buffer":0,
			"byteLength":26352,
			"byteOffset":2282804,
			"target":34962
		},
		{
			"buffer":0,
			"byteLength":26352,
			"byteOffset":2309156,
			"target":34962
		},
		{
			"buffer":0,
			"byteLength":26352,
			"byteOffset":2335508,
			"target":34962
		},
		{
			"buffer":0,
			"byteLength":26352,
			"byteOffset":2361860,
			"target":34962
		},
		{
			"buffer":0,
			"byteLength":26352,
			"byteOffset":2388212,
			"target":34962
		},
		{
			"buffer":0,
			"byteLength":26352,
			"byteOffset":2414564,
			"target":34962
		},
		{
			"buffer":0,
			"byteLength":26352,
			"byteOffset":2440916,
			"target":34962
		},
		{
			"buffer":0,
			"byteLength":26352,
			"byteOffset":2467268,
			"target":34962
		},
		{
			"buffer":0,
			"byteLength":26352,
			"byteOffset":2493620,
			"target":34962
		},
		{
			"buffer":0,
			"byteLength":26352,
			"byteOffset":2519972,
			"target":34962
		},
		{
			"buffer":0,
			"byteLength":26352,
			"byteOffset":2546324,
			"target":34962
		},
		{
			"buffer":0,
			"byteLength":26352,
			"byteOffset":2572676,
			"target":34962
		},
		{
			"buffer":0,
			"byteLength":26352,
			"byteOffset":2599028,
			"target":34962
		},
		{
			"buffer":0,
			"byteLength":26352,
			"byteOffset":2625380,
			"target":34962
		},
		{
			"buffer":0,
			"byteLength":26352,
			"byteOffset":2651732,
			"target":34962
		},
		{
			"buffer":0,
			"byteLength":26352,
			"byteOffset":2678084,
			"target":34962
		},
		{
			"buffer":0,
			"byteLength":26352,
			"byteOffset":2704436,
			"target":34962
		},
		{
			"buffer":0,
			"byteLength":26352,
			"byteOffset":2730788,
			"target":34962
		},
		{
			"buffer":0,
			"byteLength":26352,
			"byteOffset":2757140,
			"target":34962
		},
		{
			"buffer":0,
			"byteLength":26352,
			"byteOffset":2783492,
			"target":34962
		},
		{
			"buffer":0,
			"byteLength":26352,
			"byteOffset":2809844,
			"target":34962
		},
		{
			"buffer":0,
			"byteLength":26352,
			"byteOffset":2836196,
			"target":34962
		},
		{
			"buffer":0,
			"byteLength":26352,
			"byteOffset":2862548,
			"target":34962
		},
		{
			"buffer":0,
			"byteLength":26352,
			"byteOffset":2888900,
			"target":34962
		},
		{
			"buffer":0,
			"byteLength":26352,
			"byteOffset":2915252,
			"target":34962
		},
		{
			"buffer":0,
			"byteLength":26352,
			"byteOffset":2941604,
			"target":34962
		},
		{
			"buffer":0,
			"byteLength":26352,
			"byteOffset":2967956,
			"target":34962
		},
		{
			"buffer":0,
			"byteLength":26352,
			"byteOffset":2994308,
			"target":34962
		},
		{
			"buffer":0,
			"byteLength":26352,
			"byteOffset":3020660,
			"target":34962
		},
		{
			"buffer":0,
			"byteLength":26352,
			"byteOffset":3047012,
			"target":34962
		},
		{
			"buffer":0,
			"byteLength":26352,
			"byteOffset":3073364,
			"target":34962
		},
		{
			"buffer":0,
			"byteLength":26352,
			"byteOffset":3099716,
			"target":34962
		},
		{
			"buffer":0,
			"byteLength":26352,
			"byteOffset":3126068,
			"target":34962
		},
		{
			"buffer":0,
			"byteLength":26352,
			"byteOffset":3152420,
			"target":34962
		},
		{
			"buffer":0,
			"byteLength":26352,
			"byteOffset":3178772,
			"target":34962
		},
		{
			"buffer":0,
			"byteLength":26352,
			"byteOffset":3205124,
			"target":34962
		},
		{
			"buffer":0,
			"byteLength":26352,
			"byteOffset":3231476,
			"target":34962
		},
		{
			"buffer":0,
			"byteLength":26352,
			"byteOffset":3257828,
			"target":34962
		},
		{
			"buffer":0,
			"byteLength":26352,
			"byteOffset":3284180,
			"target":34962
		},
		{
			"buffer":0,
			"byteLength":26352,
			"byteOffset":3310532,
			"target":34962
		},
		{
			"buffer":0,
			"byteLength":26352,
			"byteOffset":3336884,
			"target":34962
		},
		{
			"buffer":0,
			"byteLength":26352,
			"byteOffset":3363236,
			"target":34962
		},
		{
			"buffer":0,
			"byteLength":26352,
			"byteOffset":3389588,
			"target":34962
		},
		{
			"buffer":0,
			"byteLength":26352,
			"byteOffset":3415940,
			"target":34962
		},
		{
			"buffer":0,
			"byteLength":26352,
			"byteOffset":3442292,
			"target":34962
		},
		{
			"buffer":0,
			"byteLength":26352,
			"byteOffset":3468644,
			"target":34962
		},
		{
			"buffer":0,
			"byteLength":26352,
			"byteOffset":3494996,
			"target":34962
		},
		{
			"buffer":0,
			"byteLength":26352,
			"byteOffset":3521348,
			"target":34962
		},
		{
			"buffer":0,
			"byteLength":26352,
			"byteOffset":3547700,
			"target":34962
		},
		{
			"buffer":0,
			"byteLength":26352,
			"byteOffset":3574052,
			"target":34962
		},
		{
			"buffer":0,
			"byteLength":26352,
			"byteOffset":3600404,
			"target":34962
		},
		{
			"buffer":0,
			"byteLength":26352,
			"byteOffset":3626756,
			"target":34962
		},
		{
			"buffer":0,
			"byteLength":26352,
			"byteOffset":3653108,
			"target":34962
		},
		{
			"buffer":0,
			"byteLength":26352,
			"byteOffset":3679460,
			"target":34962
		},
		{
			"buffer":0,
			"byteLength":26352,
			"byteOffset":3705812,
			"target":34962
		},
		{
			"buffer":0,
			"byteLength":26352,
			"byteOffset":3732164,
			"target":34962
		},
		{
			"buffer":0,
			"byteLength":26352,
			"byteOffset":3758516,
			"target":34962
		},
		{
			"buffer":0,
			"byteLength":26352,
			"byteOffset":3784868,
			"target":34962
		},
		{
			"buffer":0,
			"byteLength":26352,
			"byteOffset":3811220,
			"target":34962
		},
		{
			"buffer":0,
			"byteLength":26352,
			"byteOffset":3837572,
			"target":34962
		},
		{
			"buffer":0,
			"byteLength":26352,
			"byteOffset":3863924,
			"target":34962
		},
		{
			"buffer":0,
			"byteLength":26352,
			"byteOffset":3890276,
			"target":34962
		},
		{
			"buffer":0,
			"byteLength":26352,
			"byteOffset":3916628,
			"target":34962
		},
		{
			"buffer":0,
			"byteLength":26352,
			"byteOffset":3942980,
			"target":34962
		},
		{
			"buffer":0,
			"byteLength":26352,
			"byteOffset":3969332,
			"target":34962
		},
		{
			"buffer":0,
			"byteLength":26352,
			"byteOffset":3995684,
			"target":34962
		},
		{
			"buffer":0,
			"byteLength":26352,
			"byteOffset":4022036,
			"target":34962
		},
		{
			"buffer":0,
			"byteLength":26352,
			"byteOffset":4048388,
			"target":34962
		},
		{
			"buffer":0,
			"byteLength":26352,
			"byteOffset":4074740,
			"target":34962
		},
		{
			"buffer":0,
			"byteLength":26352,
			"byteOffset":4101092,
			"target":34962
		},
		{
			"buffer":0,
			"byteLength":26352,
			"byteOffset":4127444,
			"target":34962
		},
		{
			"buffer":0,
			"byteLength":26352,
			"byteOffset":4153796,
			"target":34962
		},
		{
			"buffer":0,
			"byteLength":26352,
			"byteOffset":4180148,
			"target":34962
		},
		{
			"buffer":0,
			"byteLength":26352,
			"byteOffset":4206500,
			"target":34962
		},
		{
			"buffer":0,
			"byteLength":26352,
			"byteOffset":4232852,
			"target":34962
		},
		{
			"buffer":0,
			"byteLength":26352,
			"byteOffset":4259204,
			"target":34962
		},
		{
			"buffer":0,
			"byteLength":26352,
			"byteOffset":4285556,
			"target":34962
		},
		{
			"buffer":0,
			"byteLength":26352,
			"byteOffset":4311908,
			"target":34962
		},
		{
			"buffer":0,
			"byteLength":26352,
			"byteOffset":4338260,
			"target":34962
		},
		{
			"buffer":0,
			"byteLength":26352,
			"byteOffset":4364612,
			"target":34962
		},
		{
			"buffer":0,
			"byteLength":26352,
			"byteOffset":4390964,
			"target":34962
		},
		{
			"buffer":0,
			"byteLength":26352,
			"byteOffset":4417316,
			"target":34962
		},
		{
			"buffer":0,
			"byteLength":26352,
			"byteOffset":4443668,
			"target":34962
		},
		{
			"buffer":0,
			"byteLength":26352,
			"byteOffset":4470020,
			"target":34962
		},
		{
			"buffer":0,
			"byteLength":26352,
			"byteOffset":4496372,
			"target":34962
		},
		{
			"buffer":0,
			"byteLength":26352,
			"byteOffset":4522724,
			"target":34962
		},
		{
			"buffer":0,
			"byteLength":26352,
			"byteOffset":4549076,
			"target":34962
		},
		{
			"buffer":0,
			"byteLength":26352,
			"byteOffset":4575428,
			"target":34962
		},
		{
			"buffer":0,
			"byteLength":26352,
			"byteOffset":4601780,
			"target":34962
		},
		{
			"buffer":0,
			"byteLength":26352,
			"byteOffset":4628132,
			"target":34962
		},
		{
			"buffer":0,
			"byteLength":26352,
			"byteOffset":4654484,
			"target":34962
		},
		{
			"buffer":0,
			"byteLength":26352,
			"byteOffset":4680836,
			"target":34962
		},
		{
			"buffer":0,
			"byteLength":26352,
			"byteOffset":4707188,
			"target":34962
		},
		{
			"buffer":0,
			"byteLength":26352,
			"byteOffset":4733540,
			"target":34962
		},
		{
			"buffer":0,
			"byteLength":26352,
			"byteOffset":4759892,
			"target":34962
		},
		{
			"buffer":0,
			"byteLength":26352,
			"byteOffset":4786244,
			"target":34962
		},
		{
			"buffer":0,
			"byteLength":26352,
			"byteOffset":4812596,
			"target":34962
		},
		{
			"buffer":0,
			"byteLength":26352,
			"byteOffset":4838948,
			"target":34962
		},
		{
			"buffer":0,
			"byteLength":26352,
			"byteOffset":4865300,
			"target":34962
		},
		{
			"buffer":0,
			"byteLength":26352,
			"byteOffset":4891652,
			"target":34962
		},
		{
			"buffer":0,
			"byteLength":26352,
			"byteOffset":4918004,
			"target":34962
		},
		{
			"buffer":0,
			"byteLength":26352,
			"byteOffset":4944356,
			"target":34962
		},
		{
			"buffer":0,
			"byteLength":26352,
			"byteOffset":4970708,
			"target":34962
		},
		{
			"buffer":0,
			"byteLength":26352,
			"byteOffset":4997060,
			"target":34962
		},
		{
			"buffer":0,
			"byteLength":26352,
			"byteOffset":5023412,
			"target":34962
		},
		{
			"buffer":0,
			"byteLength":26352,
			"byteOffset":5049764,
			"target":34962
		},
		{
			"buffer":0,
			"byteLength":26352,
			"byteOffset":5076116,
			"target":34962
		},
		{
			"buffer":0,
			"byteLength":26352,
			"byteOffset":5102468,
			"target":34962
		},
		{
			"buffer":0,
			"byteLength":26352,
			"byteOffset":5128820,
			"target":34962
		},
		{
			"buffer":0,
			"byteLength":26352,
			"byteOffset":5155172,
			"target":34962
		},
		{
			"buffer":0,
			"byteLength":26352,
			"byteOffset":5181524,
			"target":34962
		},
		{
			"buffer":0,
			"byteLength":26352,
			"byteOffset":5207876,
			"target":34962
		},
		{
			"buffer":0,
			"byteLength":26352,
			"byteOffset":5234228,
			"target":34962
		},
		{
			"buffer":0,
			"byteLength":26352,
			"byteOffset":5260580,
			"target":34962
		},
		{
			"buffer":0,
			"byteLength":26352,
			"byteOffset":5286932,
			"target":34962
		},
		{
			"buffer":0,
			"byteLength":26352,
			"byteOffset":5313284,
			"target":34962
		},
		{
			"buffer":0,
			"byteLength":26352,
			"byteOffset":5339636,
			"target":34962
		},
		{
			"buffer":0,
			"byteLength":26352,
			"byteOffset":5365988,
			"target":34962
		},
		{
			"buffer":0,
			"byteLength":26352,
			"byteOffset":5392340,
			"target":34962
		},
		{
			"buffer":0,
			"byteLength":26352,
			"byteOffset":5418692,
			"target":34962
		},
		{
			"buffer":0,
			"byteLength":26352,
			"byteOffset":5445044,
			"target":34962
		},
		{
			"buffer":0,
			"byteLength":26352,
			"byteOffset":5471396,
			"target":34962
		},
		{
			"buffer":0,
			"byteLength":26352,
			"byteOffset":5497748,
			"target":34962
		},
		{
			"buffer":0,
			"byteLength":26352,
			"byteOffset":5524100,
			"target":34962
		},
		{
			"buffer":0,
			"byteLength":26352,
			"byteOffset":5550452,
			"target":34962
		},
		{
			"buffer":0,
			"byteLength":26352,
			"byteOffset":5576804,
			"target":34962
		},
		{
			"buffer":0,
			"byteLength":26352,
			"byteOffset":5603156,
			"target":34962
		},
		{
			"buffer":0,
			"byteLength":26352,
			"byteOffset":5629508,
			"target":34962
		},
		{
			"buffer":0,
			"byteLength":26352,
			"byteOffset":5655860,
			"target":34962
		},
		{
			"buffer":0,
			"byteLength":26352,
			"byteOffset":5682212,
			"target":34962
		},
		{
			"buffer":0,
			"byteLength":26352,
			"byteOffset":5708564,
			"target":34962
		},
		{
			"buffer":0,
			"byteLength":26352,
			"byteOffset":5734916,
			"target":34962
		},
		{
			"buffer":0,
			"byteLength":26352,
			"byteOffset":5761268,
			"target":34962
		},
		{
			"buffer":0,
			"byteLength":26352,
			"byteOffset":5787620,
			"target":34962
		},
		{
			"buffer":0,
			"byteLength":26352,
			"byteOffset":5813972,
			"target":34962
		},
		{
			"buffer":0,
			"byteLength":26352,
			"byteOffset":5840324,
			"target":34962
		},
		{
			"buffer":0,
			"byteLength":26352,
			"byteOffset":5866676,
			"target":34962
		},
		{
			"buffer":0,
			"byteLength":26352,
			"byteOffset":5893028,
			"target":34962
		},
		{
			"buffer":0,
			"byteLength":26352,
			"byteOffset":5919380,
			"target":34962
		},
		{
			"buffer":0,
			"byteLength":26352,
			"byteOffset":5945732,
			"target":34962
		},
		{
			"buffer":0,
			"byteLength":26352,
			"byteOffset":5972084,
			"target":34962
		},
		{
			"buffer":0,
			"byteLength":26352,
			"byteOffset":5998436,
			"target":34962
		},
		{
			"buffer":0,
			"byteLength":26352,
			"byteOffset":6024788,
			"target":34962
		},
		{
			"buffer":0,
			"byteLength":26352,
			"byteOffset":6051140,
			"target":34962
		},
		{
			"buffer":0,
			"byteLength":26352,
			"byteOffset":6077492,
			"target":34962
		},
		{
			"buffer":0,
			"byteLength":26352,
			"byteOffset":6103844,
			"target":34962
		},
		{
			"buffer":0,
			"byteLength":26352,
			"byteOffset":6130196,
			"target":34962
		},
		{
			"buffer":0,
			"byteLength":26352,
			"byteOffset":6156548,
			"target":34962
		},
		{
			"buffer":0,
			"byteLength":26352,
			"byteOffset":6182900,
			"target":34962
		},
		{
			"buffer":0,
			"byteLength":26352,
			"byteOffset":6209252,
			"target":34962
		},
		{
			"buffer":0,
			"byteLength":26352,
			"byteOffset":6235604,
			"target":34962
		},
		{
			"buffer":0,
			"byteLength":26352,
			"byteOffset":6261956,
			"target":34962
		},
		{
			"buffer":0,
			"byteLength":26352,
			"byteOffset":6288308,
			"target":34962
		},
		{
			"buffer":0,
			"byteLength":26352,
			"byteOffset":6314660,
			"target":34962
		},
		{
			"buffer":0,
			"byteLength":26352,
			"byteOffset":6341012,
			"target":34962
		},
		{
			"buffer":0,
			"byteLength":26352,
			"byteOffset":6367364,
			"target":34962
		},
		{
			"buffer":0,
			"byteLength":26352,
			"byteOffset":6393716,
			"target":34962
		},
		{
			"buffer":0,
			"byteLength":26352,
			"byteOffset":6420068,
			"target":34962
		},
		{
			"buffer":0,
			"byteLength":26352,
			"byteOffset":6446420,
			"target":34962
		},
		{
			"buffer":0,
			"byteLength":26352,
			"byteOffset":6472772,
			"target":34962
		},
		{
			"buffer":0,
			"byteLength":26352,
			"byteOffset":6499124,
			"target":34962
		},
		{
			"buffer":0,
			"byteLength":26352,
			"byteOffset":6525476,
			"target":34962
		},
		{
			"buffer":0,
			"byteLength":26352,
			"byteOffset":6551828,
			"target":34962
		},
		{
			"buffer":0,
			"byteLength":26352,
			"byteOffset":6578180,
			"target":34962
		},
		{
			"buffer":0,
			"byteLength":26352,
			"byteOffset":6604532,
			"target":34962
		},
		{
			"buffer":0,
			"byteLength":26352,
			"byteOffset":6630884,
			"target":34962
		},
		{
			"buffer":0,
			"byteLength":26352,
			"byteOffset":6657236,
			"target":34962
		},
		{
			"buffer":0,
			"byteLength":26352,
			"byteOffset":6683588,
			"target":34962
		},
		{
			"buffer":0,
			"byteLength":26352,
			"byteOffset":6709940,
			"target":34962
		},
		{
			"buffer":0,
			"byteLength":6420,
			"byteOffset":6736292,
			"target":34962
		},
		{
			"buffer":0,
			"byteLength":6420,
			"byteOffset":6742712,
			"target":34962
		},
		{
			"buffer":0,
			"byteLength":4280,
			"byteOffset":6749132,
			"target":34962
		},
		{
			"buffer":0,
			"byteLength":6288,
			"byteOffset":6753412,
			"target":34963
		},
		{
			"buffer":0,
			"byteLength":72,
			"byteOffset":6759700
		},
		{
			"buffer":0,
			"byteLength":216,
			"byteOffset":6759772
		},
		{
			"buffer":0,
			"byteLength":384,
			"byteOffset":6759988
		},
		{
			"buffer":0,
			"byteLength":1152,
			"byteOffset":6760372
		},
		{
			"buffer":0,
			"byteLength":1536,
			"byteOffset":6761524
		},
		{
			"buffer":0,
			"byteLength":48384,
			"byteOffset":6763060
		}
	],
	"buffers":[
		{
			"byteLength":6811444,
			"uri":"pack-wide.bin"
		}
	]
}
